Coordinates
version=1
nRows=20
nColumns=38
inDegrees=no

Units are S.I. units (second, meters, Newtons, ...)
If the header above contains a line with 'inDegrees', this indicates whether rotational values are in degrees (yes) or radians (no).

endheader
time	pelvis_tilt	pelvis_list	pelvis_rotation	pelvis_tx	pelvis_ty	pelvis_tz	hip_flexion_r	hip_adduction_r	hip_rotation_r	knee_angle_r	ankle_angle_r	subtalar_angle_r	mtp_angle_r	hip_flexion_l	hip_adduction_l	hip_rotation_l	knee_angle_l	ankle_angle_l	subtalar_angle_l	mtp_angle_l	lumbar_extension	lumbar_bending	lumbar_rotation	arm_flex_r	arm_add_r	arm_rot_r	elbow_flex_r	pro_sup_r	wrist_flex_r	wrist_dev_r	arm_flex_l	arm_add_l	arm_rot_l	elbow_flex_l	pro_sup_l	wrist_flex_l	wrist_dev_l
20	-0.184502	1.36312	-1.31712	0.739746	-0.18819	0.960925	-0.318351	0.0293472	-0.0342435	0.0320485	-0.463018	0	0	-0.269083	-0.110505	-0.0202595	0.114648	-0.440612	0	0	-0.85734	0.170844	0.316779	0.0423699	-0.623748	-0.292943	1.59715	1.25051	0	0	0.765252	-0.00455412	0.239934	0.700829	1.5708	0	0
20.01	-0.184631	1.36417	-1.31661	0.739707	-0.189658	0.960748	-0.320203	0.0294304	-0.03222	0.0293118	-0.464314	0	0	-0.271385	-0.110503	-0.0183615	0.111295	-0.442065	0	0	-0.856952	0.170678	0.320697	0.0453555	-0.524914	-0.389417	1.60161	1.39813	0	0	0.760343	-0.00452718	0.24575	0.705347	1.5708	0	0
20.02	-0.184714	1.3657	-1.31604	0.739665	-0.191164	0.960523	-0.321226	0.0294532	-0.0309327	0.0276579	-0.463896	0	0	-0.272176	-0.110416	-0.0178766	0.109993	-0.441663	0	0	-0.855252	0.170618	0.321724	0.0358497	-0.520168	-0.395667	1.60452	1.41221	0	0	0.753836	-0.00559858	0.247671	0.710508	1.5708	0	0
20.03	-0.185056	1.36747	-1.315	0.739629	-0.192706	0.960268	-0.321981	0.0295683	-0.0300364	0.0261316	-0.463274	0	0	-0.272698	-0.110358	-0.0169402	0.108575	-0.44107	0	0	-0.853736	0.170656	0.322712	0.0260053	-0.516042	-0.401901	1.60851	1.42468	0	0	0.746519	-0.00687078	0.249253	0.717168	1.5708	0	0
20.04	-0.185404	1.36869	-1.31409	0.739635	-0.194205	0.960033	-0.32322	0.0297029	-0.0290236	0.024715	-0.462575	0	0	-0.273709	-0.110364	-0.0162764	0.107371	-0.440286	0	0	-0.853171	0.170402	0.324825	0.0155604	-0.51237	-0.409807	1.61319	1.43441	0	0	0.739532	-0.00738255	0.251481	0.72448	1.5708	0	0
20.05	-0.185193	1.36968	-1.31377	0.739651	-0.195706	0.959825	-0.324659	0.0297621	-0.0280318	0.0235088	-0.461855	0	0	-0.275012	-0.110294	-0.0158028	0.106129	-0.439397	0	0	-0.852931	0.170165	0.327048	0.0057649	-0.509106	-0.417753	1.61816	1.44166	0	0	0.732822	-0.00780174	0.253739	0.731681	1.5708	0	0
20.06	-0.18484	1.37088	-1.31345	0.739658	-0.197246	0.959601	-0.325834	0.0298121	-0.027572	0.0225427	-0.460907	0	0	-0.276204	-0.110216	-0.0150594	0.104687	-0.438316	0	0	-0.852446	0.169953	0.329147	-0.00442433	-0.50627	-0.425178	1.62344	1.4482	0	0	0.726308	-0.00810481	0.255709	0.738709	1.5708	0	0
20.07	-0.18428	1.37219	-1.31346	0.739648	-0.198801	0.959364	-0.326844	0.0297245	-0.02718	0.0217823	-0.459725	0	0	-0.277411	-0.110029	-0.0143456	0.103147	-0.437407	0	0	-0.851823	0.169637	0.331225	-0.0150371	-0.503917	-0.431721	1.6288	1.45465	0	0	0.720127	-0.00830283	0.257317	0.745457	1.5708	0	0
20.08	-0.184056	1.37369	-1.31322	0.739622	-0.200385	0.959117	-0.327649	0.0296317	-0.0267802	0.0210359	-0.458426	0	0	-0.278383	-0.109858	-0.0137823	0.10179	-0.436789	0	0	-0.851033	0.169432	0.333198	-0.0255242	-0.500811	-0.437989	1.63421	1.45943	0	0	0.714199	-0.00877756	0.258879	0.752253	1.5708	0	0
20.09	-0.184041	1.37513	-1.31283	0.739591	-0.20198	0.958869	-0.328536	0.0296354	-0.0262982	0.0202259	-0.457038	0	0	-0.279301	-0.109777	-0.0133436	0.100729	-0.436026	0	0	-0.85025	0.169194	0.335159	-0.0357098	-0.497741	-0.44398	1.63948	1.46319	0	0	0.708767	-0.0095182	0.260796	0.758962	1.5708	0	0
20.1	-0.18425	1.37659	-1.31239	0.739554	-0.203597	0.958628	-0.329381	0.0296232	-0.0255974	0.019451	-0.455688	0	0	-0.280222	-0.109753	-0.0130037	0.0997585	-0.435071	0	0	-0.849565	0.16886	0.337275	-0.045821	-0.494966	-0.449935	1.64506	1.46629	0	0	0.703666	-0.0104519	0.262965	0.765647	1.5708	0	0
20.11	-0.185174	1.3783	-1.31122	0.73953	-0.205245	0.958356	-0.32993	0.0296613	-0.0249335	0.0187436	-0.454349	0	0	-0.280915	-0.109701	-0.0127058	0.0985751	-0.434041	0	0	-0.848637	0.168607	0.339413	-0.0558322	-0.492352	-0.455809	1.65089	1.46883	0	0	0.69873	-0.0114618	0.265221	0.772074	1.5708	0	0
20.12	-0.186561	1.38027	-1.30947	0.739517	-0.206945	0.958052	-0.330312	0.0297362	-0.0242576	0.0178246	-0.453104	0	0	-0.281216	-0.109584	-0.0123082	0.0975343	-0.433043	0	0	-0.847415	0.168441	0.341469	-0.065677	-0.489863	-0.461572	1.65657	1.4711	0	0	0.693811	-0.0126405	0.267781	0.778393	1.5708	0	0
20.13	-0.188241	1.38217	-1.3076	0.739513	-0.208647	0.95776	-0.330765	0.0297803	-0.0232525	0.0169151	-0.451945	0	0	-0.281528	-0.109493	-0.0119665	0.0966995	-0.432032	0	0	-0.846256	0.168264	0.343481	-0.0750033	-0.487562	-0.466935	1.6618	1.47317	0	0	0.688878	-0.014018	0.270538	0.784581	1.5708	0	0
20.14	-0.190052	1.38399	-1.30558	0.739496	-0.210385	0.957479	-0.33145	0.0299615	-0.0223321	0.0159273	-0.45065	0	0	-0.28194	-0.109514	-0.01149	0.0959355	-0.430925	0	0	-0.84508	0.168164	0.345255	-0.083825	-0.484845	-0.472093	1.66672	1.47511	0	0	0.68373	-0.0156884	0.273391	0.790852	1.5708	0	0
20.15	-0.191721	1.3856	-1.30384	0.739478	-0.212134	0.957217	-0.332428	0.0301938	-0.021477	0.0150074	-0.449218	0	0	-0.28283	-0.109536	-0.0110463	0.0948481	-0.429766	0	0	-0.844014	0.168033	0.346869	-0.0922753	-0.481919	-0.47698	1.67155	1.477	0	0	0.678426	-0.0175853	0.276328	0.797147	1.5708	0	0
20.16	-0.193827	1.38718	-1.30155	0.739482	-0.213907	0.956957	-0.333449	0.0304467	-0.0209655	0.0137151	-0.448181	0	0	-0.283962	-0.109656	-0.0102216	0.0933338	-0.428651	0	0	-0.843036	0.168161	0.348505	-0.101129	-0.479226	-0.481733	1.67667	1.47871	0	0	0.67283	-0.0196434	0.279507	0.80371	1.5708	0	0
20.17	-0.197886	1.38811	-1.29746	0.739539	-0.215649	0.956694	-0.334941	0.0310222	-0.0204052	0.0124526	-0.447504	0	0	-0.28575	-0.1102	-0.00967268	0.0917272	-0.427481	0	0	-0.842866	0.168198	0.351672	-0.112005	-0.477222	-0.487967	1.68232	1.4799	0	0	0.667515	-0.0210972	0.284303	0.810881	1.5708	0	0
20.18	-0.201305	1.38891	-1.29436	0.739569	-0.217405	0.956423	-0.336583	0.0314159	-0.0194698	0.011372	-0.44679	0	0	-0.287822	-0.110562	-0.00936761	0.0900434	-0.426346	0	0	-0.842806	0.168023	0.355408	-0.123539	-0.474883	-0.494858	1.68811	1.48068	0	0	0.662545	-0.0225488	0.29029	0.817335	1.5708	0	0
20.19	-0.204888	1.38983	-1.29122	0.739592	-0.219178	0.956143	-0.33813	0.0318197	-0.0183638	0.0102576	-0.446004	0	0	-0.289751	-0.110854	-0.00929524	0.0885094	-0.42523	0	0	-0.842564	0.167764	0.359423	-0.135568	-0.472612	-0.501667	1.69382	1.48104	0	0	0.658105	-0.0239317	0.296818	0.822723	1.5708	0	0
